<svg width="40" height="24" viewBox="0 0 40 24" fill="none" xmlns="http://www.w3.org/2000/svg">
  <rect width="40" height="24" rx="4" fill="#F7931A"/>
  <path d="M20 2C29.941 2 38 10.059 38 20C38 29.941 29.941 38 20 38C10.059 38 2 29.941 2 20C2 10.059 10.059 2 20 2Z" fill="#F7931A" transform="scale(0.5) translate(20, 4)"/>
  <path d="M14.92 16.02C15.02 15.07 15.68 14.55 16.45 14.55C16.99 14.55 17.31 14.75 17.31 15.07C17.31 15.39 17.02 15.55 16.48 15.79L16.05 15.97C15.18 16.36 14.67 16.88 14.67 17.67C14.67 18.65 15.41 19.23 16.5 19.23C17.23 19.23 17.84 18.97 18.27 18.51L17.91 17.84C17.57 18.18 17.1 18.36 16.58 18.36C16.09 18.36 15.83 18.14 15.83 17.85C15.83 17.55 16.08 17.41 16.57 17.19L17 17.01C17.96 16.59 18.47 16.07 18.47 15.24C18.47 14.23 17.66 13.68 16.5 13.68C15.59 13.68 14.81 14.09 14.38 14.75L14.92 16.02Z" fill="white"/>
  <path d="M20 8C24.4 8 28 11.6 28 16C28 20.4 24.4 24 20 24C15.6 24 12 20.4 12 16C12 11.6 15.6 8 20 8ZM21.68 11.32C21.68 10.46 21.01 9.79 20.15 9.79H19.85C18.99 9.79 18.32 10.46 18.32 11.32V14.68C18.32 15.54 18.99 16.21 19.85 16.21H20.15C21.01 16.21 21.68 15.54 21.68 14.68V11.32ZM24.32 11.32C24.32 10.46 23.65 9.79 22.79 9.79H22.49C21.63 9.79 20.96 10.46 20.96 11.32V14.68C20.96 15.54 21.63 16.21 22.49 16.21H22.79C23.65 16.21 24.32 15.54 24.32 14.68V11.32ZM19.04 11.32C19.04 10.46 17.37 9.79 16.51 9.79H16.21C15.35 9.79 15.68 10.46 15.68 11.32V14.68C15.68 15.54 16.35 16.21 17.21 16.21H17.51C18.37 16.21 19.04 15.54 19.04 14.68V11.32Z" fill="white"/>
</svg>